# xmcd
#
# Track frame offsets:
#	150
#	20628
#	39951
#	56771
#	72533
#	93732
#	115261
#	130893
#	145793
#	170525
#	192464
#	211892
#	233633
#	260129
#
# Disc length: 3904 seconds
#
# Revision: 1
# Processed by: cddbd v1.5.2PL0 Copyright (c) Steve Scherf et al.
# Submitted via: audiograbber 1.83.01
#
DISCID=d40f3e0e
DTITLE=Raul Malo - Lucky One
DYEAR=2009
DGENRE=Country
TTITLE0=Lucky One
TTITLE1=Moonlight Kiss
TTITLE2=Something Tells Me
TTITLE3=Hello Again
TTITLE4=Ready For My Lovin'
TTITLE5=Crying For You
TTITLE6=You Always Win
TTITLE7=Lonely Hearts
TTITLE8=One More Angel
TTITLE9=Rosalie
TTITLE10=Haunting Me
TTITLE11=So Beautiful
TTITLE12=Dance The Night Away (Live)
TTITLE13=All You Ever Do Is Bring Me Down (Live)
EXTD=
EXTT0=
EXTT1=
EXTT2=
EXTT3=
EXTT4=
EXTT5=
EXTT6=
EXTT7=
EXTT8=
EXTT9=
EXTT10=
EXTT11=
EXTT12=
EXTT13=
PLAYORDER=
